{"title":"Ghost.Adventures.S05E03.Loretta.Lynn's.Plantation.House.HDTV.Xv","uid":6461005,"size":364994560,"categoryP":"video","categoryS":"tv_shows","magnet":"?xt=urn:btih:de6738e9c2ddd4e07b384850b83a614fcc7e0c42&amp;dn=Ghost.Adventures.S05E03.Loretta.Lynn%5C%27s.Plantation.House.HDTV.Xv&amp;tr=udp%3A%2F%2Ftracker.openbittorrent.com%3A80&amp;tr=udp%3A%2F%2Fopen.demonii.com%3A1337&amp;tr=udp%3A%2F%2Ftracker.coppersurfer.tk%3A6969&amp;tr=udp%3A%2F%2Fexodus.desync.com%3A6969","seeders":1,"leechers":0,"uploader":"trialNerror","files":1,"time":1307770584,"description":"Format                           : AVI\nFormat/Info                      : Audio Video Interleave\nFile size                        : 348 MiB\nDuration                         : 42mn 30s\nOverall bit rate                 : 1 145 Kbps\nWriting application              : VirtualDubMod 1.5.10.2 (build 2542/release)\nWriting library                  : VirtualDubMod build 2542/release\n\nVideo\nID                               : 0\nFormat                           : MPEG-4 Visual\nFormat profile                   : Advanced Simple@L5\nFormat settings, BVOP            : Yes\nFormat settings, QPel            : No\nFormat settings, GMC             : No warppoints\nFormat settings, Matrix          : Default (H.263)\nMuxing mode                      : Packed bitstream\nCodec ID                         : XVID\nCodec ID/Hint                    : XviD\nDuration                         : 42mn 30s\nBit rate                         : 1 004 Kbps\nWidth                            : 624 pixels\nHeight                           : 352 pixels\nDisplay aspect ratio             : 16:9\nFrame rate                       : 29.970 fps\nColor space                      : YUV\nChroma subsampling               : 4:2:0\nBit depth                        : 8 bits\nScan type                        : Progressive\nBits/(Pixel*Frame)               : 0.152\nStream size                      : 305 MiB (88%)\nWriting library                  : XviD 58\n\nAudio\nID                               : 1\nFormat                           : MPEG Audio\nFormat version                   : Version 1\nFormat profile                   : Layer 3\nMode                             : Joint stereo\nMode extension                   : MS Stereo\nCodec ID                         : 55\nCodec ID/Hint                    : MP3\nDuration                         : 42mn 30s\nBit rate mode                    : Variable\nBit rate                         : 128 Kbps\nChannel(s)                       : 2 channels\nSampling rate                    : 48.0 KHz\nStream size                      : 38.7 MiB (11%)\nAlignment                        : Aligned on interleaves\nInterleave, duration             : 24 ms (0.72 video frame)\nInterleave, preload duration     : 498 ms","torrent":{"xt":"urn:btih:de6738e9c2ddd4e07b384850b83a614fcc7e0c42","amp;dn":"Ghost.Adventures.S05E03.Loretta.Lynn%5C%27s.Plantation.House.HDTV.Xv","amp;tr":["udp%3A%2F%2Ftracker.openbittorrent.com%3A80","udp%3A%2F%2Fopen.demonii.com%3A1337","udp%3A%2F%2Ftracker.coppersurfer.tk%3A6969","udp%3A%2F%2Fexodus.desync.com%3A6969"],"infoHash":"de6738e9c2ddd4e07b384850b83a614fcc7e0c42","infoHashBuffer":{"type":"Buffer","data":[222,103,56,233,194,221,212,224,123,56,72,80,184,58,97,79,204,126,12,66]},"announce":[],"urlList":[]}}